<svg id="element-3" xmlns="http://www.w3.org/2000/svg" width="19" height="19" viewBox="0 0 19 19">
  <path id="Vector" d="M6.729,5.162V1.567C6.729.451,6.223,0,4.964,0h-3.2C.507,0,0,.451,0,1.567V5.154C0,6.278.507,6.721,1.765,6.721h3.2C6.223,6.729,6.729,6.278,6.729,5.162Z" transform="translate(10.688 1.583)" fill="none" stroke="#a2a2a2" stroke-linecap="round" stroke-linejoin="round" stroke-width="1.5"/>
  <path id="Vector-2" data-name="Vector" d="M6.729,4.964v-3.2C6.729.507,6.223,0,4.964,0h-3.2C.507,0,0,.507,0,1.765v3.2C0,6.223.507,6.729,1.765,6.729h3.2C6.223,6.729,6.729,6.223,6.729,4.964Z" transform="translate(10.688 10.688)" fill="none" stroke="#a2a2a2" stroke-linecap="round" stroke-linejoin="round" stroke-width="1.5"/>
  <path id="Vector-3" data-name="Vector" d="M6.729,5.162V1.567C6.729.451,6.223,0,4.964,0h-3.2C.507,0,0,.451,0,1.567V5.154C0,6.278.507,6.721,1.765,6.721h3.2C6.223,6.729,6.729,6.278,6.729,5.162Z" transform="translate(1.583 1.583)" fill="none" stroke="#a2a2a2" stroke-linecap="round" stroke-linejoin="round" stroke-width="1.5"/>
  <path id="Vector-4" data-name="Vector" d="M6.729,4.964v-3.2C6.729.507,6.223,0,4.964,0h-3.2C.507,0,0,.507,0,1.765v3.2C0,6.223.507,6.729,1.765,6.729h3.2C6.223,6.729,6.729,6.223,6.729,4.964Z" transform="translate(1.583 10.688)" fill="none" stroke="#a2a2a2" stroke-linecap="round" stroke-linejoin="round" stroke-width="1.5"/>
  <path id="Vector-5" data-name="Vector" d="M0,0H19V19H0Z" fill="none" opacity="0"/>
</svg>
