<svg id="row-vertical" xmlns="http://www.w3.org/2000/svg" width="19" height="19" viewBox="0 0 19 19">
  <path id="Vector" d="M14.171,0H1.663C.475,0,0,.507,0,1.765v3.2C0,6.223.475,6.729,1.663,6.729H14.171c1.188,0,1.663-.507,1.663-1.765v-3.2C15.833.507,15.358,0,14.171,0Z" transform="translate(1.583 10.688)" fill="none" stroke="#2c2c2c" stroke-linecap="round" stroke-linejoin="round" stroke-width="1.5"/>
  <path id="Vector-2" data-name="Vector" d="M14.171,0H1.663C.475,0,0,.507,0,1.765v3.2C0,6.223.475,6.729,1.663,6.729H14.171c1.188,0,1.663-.507,1.663-1.765v-3.2C15.833.507,15.358,0,14.171,0Z" transform="translate(1.583 1.583)" fill="none" stroke="#2c2c2c" stroke-linecap="round" stroke-linejoin="round" stroke-width="1.5"/>
  <path id="Vector-3" data-name="Vector" d="M0,0H19V19H0Z" fill="none" opacity="0"/>
</svg>
